<svg width="29" height="29" viewBox="0 0 29 29" fill="none" xmlns="http://www.w3.org/2000/svg">
<rect x="0.5" y="0.5" width="28" height="28" rx="3.5" fill="#D22F27"/>
<rect x="0.5" y="0.5" width="28" height="28" rx="3.5" stroke="#B83A38"/>
<path d="M12.2453 8.44941L12.0625 8.8125H9.625C9.17559 8.8125 8.8125 9.17559 8.8125 9.625C8.8125 10.0744 9.17559 10.4375 9.625 10.4375H19.375C19.8244 10.4375 20.1875 10.0744 20.1875 9.625C20.1875 9.17559 19.8244 8.8125 19.375 8.8125H16.9375L16.7547 8.44941C16.6176 8.17266 16.3357 8 16.0285 8H12.9715C12.6643 8 12.3824 8.17266 12.2453 8.44941ZM19.375 11.25H9.625L10.1633 19.8574C10.2039 20.4998 10.7371 21 11.3795 21H17.6205C18.2629 21 18.7961 20.4998 18.8367 19.8574L19.375 11.25Z" fill="white"/>
</svg>
