<svg width="29" height="29" viewBox="0 0 29 29" fill="none" xmlns="http://www.w3.org/2000/svg">
<rect x="0.5" y="0.5" width="28" height="28" rx="3.5" stroke="#D5D5DE"/>
<path d="M20.6416 11.6066L19.4711 12.7771C19.3518 12.8964 19.1588 12.8964 19.0395 12.7771L16.2211 9.95874C16.1018 9.8394 16.1018 9.64644 16.2211 9.5271L17.3916 8.35659C17.8664 7.88179 18.6383 7.88179 19.1157 8.35659L20.6416 9.88257C21.119 10.3574 21.119 11.1292 20.6416 11.6066ZM15.2157 10.5326L8.54808 17.2001L8.0098 20.2851C7.93617 20.7015 8.29925 21.0621 8.71566 20.991L11.8006 20.4501L18.4682 13.7826C18.5875 13.6632 18.5875 13.4703 18.4682 13.3509L15.6498 10.5326C15.528 10.4132 15.335 10.4132 15.2157 10.5326ZM11.1506 16.6289C11.011 16.4892 11.011 16.2658 11.1506 16.1261L15.0608 12.216C15.2004 12.0763 15.4239 12.0763 15.5635 12.216C15.7032 12.3556 15.7032 12.5791 15.5635 12.7187L11.6534 16.6289C11.5137 16.7685 11.2903 16.7685 11.1506 16.6289ZM10.234 18.7642H11.4528V19.6859L9.81507 19.9728L9.02542 19.1832L9.31234 17.5455H10.234V18.7642Z" fill="#767676"/>
</svg>
